<svg width="28" height="28" viewBox="0 0 28 28" fill="none" xmlns="http://www.w3.org/2000/svg">
<g clip-path="url(#clip0_1:492)">
<path d="M10.6415 20.9294C8.69207 20.9294 7.10614 22.5154 7.10614 24.4648C7.10614 26.4141 8.69207 28.0001 10.6415 28.0001C12.5908 28.0001 14.1768 26.4141 14.1768 24.4648C14.1768 22.5154 12.5908 20.9294 10.6415 20.9294ZM10.6415 25.8789C9.86156 25.8789 9.22735 25.2446 9.22735 24.4648C9.22735 23.6849 9.86156 23.0507 10.6415 23.0507C11.421 23.0507 12.0556 23.6849 12.0556 24.4648C12.0556 25.2446 11.4214 25.8789 10.6415 25.8789Z" fill="#0F2438" stroke="white" stroke-width="0.3"/>
<path d="M21.1062 20.9294C19.1568 20.9294 17.5709 22.5154 17.5709 24.4648C17.5709 26.4141 19.1568 28.0001 21.1062 28.0001C23.0556 28.0001 24.6415 26.4141 24.6415 24.4648C24.6415 22.5154 23.0556 20.9294 21.1062 20.9294ZM21.1062 25.8789C20.3263 25.8789 19.6921 25.2446 19.6921 24.4648C19.6921 23.6849 20.3263 23.0507 21.1062 23.0507C21.8861 23.0507 22.5203 23.6849 22.5203 24.4648C22.5203 25.2446 21.8861 25.8789 21.1062 25.8789Z" fill="#0F2438" stroke="white" stroke-width="0.3"/>
<path d="M27.2391 6.90559C27.0376 6.65245 26.7322 6.50506 26.409 6.50506H7.83814L6.87405 1.6327C6.78956 1.20597 6.45302 0.874023 6.02487 0.795547L1.7825 0.0177841C1.20522 -0.0886374 0.653703 0.293572 0.547992 0.869812C0.442282 1.44605 0.823726 1.99861 1.40002 2.10432L4.9332 2.75198L8.04567 18.4837C8.14395 18.9804 8.57986 19.3385 9.0861 19.3385H23.9344C24.4282 19.3385 24.8564 18.9981 24.9677 18.5162L27.4424 7.80427C27.5152 7.48927 27.4403 7.15836 27.2391 6.90559ZM23.0908 17.2174H9.95716L8.25775 8.6266H25.0751L23.0908 17.2174Z" fill="#0F2438" stroke="white" stroke-width="0.3"/>
</g>
<defs>
<clipPath id="clip0_1:492">
<rect width="28" height="28" fill="white"/>
</clipPath>
</defs>
</svg>
