<svg width="17" height="17" viewBox="0 0 17 17" fill="none" xmlns="http://www.w3.org/2000/svg">
<g clip-path="url(#clip0_1:521)">
<path d="M6.46086 12.7073C5.27731 12.7073 4.31442 13.6702 4.31442 14.8537C4.31442 16.0373 5.27731 17.0002 6.46086 17.0002C7.64442 17.0002 8.6073 16.0373 8.6073 14.8537C8.6073 13.6702 7.64438 12.7073 6.46086 12.7073ZM6.46086 15.7123C5.98736 15.7123 5.6023 15.3272 5.6023 14.8537C5.6023 14.3802 5.98736 13.9952 6.46086 13.9952C6.93414 13.9952 7.31943 14.3802 7.31943 14.8537C7.31943 15.3272 6.93437 15.7123 6.46086 15.7123Z" fill="white"/>
<path d="M12.8145 12.7073C11.6309 12.7073 10.6681 13.6702 10.6681 14.8537C10.6681 16.0373 11.6309 17.0002 12.8145 17.0002C13.9981 17.0002 14.9609 16.0373 14.9609 14.8537C14.9609 13.6702 13.9981 12.7073 12.8145 12.7073ZM12.8145 15.7123C12.341 15.7123 11.9559 15.3272 11.9559 14.8537C11.9559 14.3802 12.341 13.9952 12.8145 13.9952C13.288 13.9952 13.6731 14.3802 13.6731 14.8537C13.6731 15.3272 13.288 15.7123 12.8145 15.7123Z" fill="white"/>
<path d="M16.538 4.19268C16.4156 4.03898 16.2302 3.9495 16.034 3.9495H4.75883L4.1735 0.991282C4.1222 0.732199 3.91787 0.530657 3.65792 0.48301L1.0822 0.0107975C0.731708 -0.0538156 0.396856 0.17824 0.332675 0.5281C0.268493 0.87796 0.500084 1.21344 0.849977 1.27762L2.99512 1.67085L4.88484 11.2223C4.9445 11.5238 5.20917 11.7412 5.51653 11.7412H14.5315C14.8314 11.7412 15.0913 11.5346 15.1589 11.242L16.6614 4.73831C16.7056 4.54706 16.6601 4.34615 16.538 4.19268ZM14.0194 10.4534H6.04538L5.0136 5.23758H15.2242L14.0194 10.4534Z" fill="white"/>
</g>
<defs>
<clipPath id="clip0_1:521">
<rect width="17" height="17" fill="white"/>
</clipPath>
</defs>
</svg>
