<svg width="28" height="26" viewBox="0 0 28 26" fill="none" xmlns="http://www.w3.org/2000/svg">
<path d="M14 25.4422C13.6014 25.4422 13.217 25.2978 12.9175 25.0355C11.7864 24.0464 10.6959 23.1169 9.73372 22.297L9.7288 22.2928C6.90792 19.8889 4.47198 17.8129 2.77709 15.7679C0.882475 13.4817 0 11.3141 0 8.94606C0 6.64534 0.788908 4.52279 2.22125 2.96911C3.67068 1.39706 5.6595 0.53125 7.82201 0.53125C9.43828 0.53125 10.9185 1.04224 12.2214 2.04989C12.8789 2.55853 13.4749 3.18103 14 3.90713C14.5253 3.18103 15.1211 2.55853 15.7788 2.04989C17.0817 1.04224 18.5619 0.53125 20.1782 0.53125C22.3404 0.53125 24.3295 1.39706 25.7789 2.96911C27.2113 4.52279 27.9999 6.64534 27.9999 8.94606C27.9999 11.3141 27.1177 13.4817 25.2231 15.7677C23.5282 17.8129 21.0925 19.8887 18.272 22.2923C17.3081 23.1135 16.2159 24.0445 15.0822 25.0359C14.7829 25.2978 14.3984 25.4422 14 25.4422ZM7.82201 2.17144C6.12307 2.17144 4.56234 2.84948 3.42693 4.0808C2.27465 5.33071 1.63998 7.05849 1.63998 8.94606C1.63998 10.9377 2.38018 12.7188 4.03982 14.7213C5.64391 16.657 8.02986 18.6902 10.7924 21.0446L10.7976 21.0488C11.7633 21.8719 12.8582 22.805 13.9976 23.8014C15.1439 22.8031 16.2404 21.8685 17.2082 21.0441C19.9705 18.6898 22.3563 16.657 23.9603 14.7213C25.6198 12.7188 26.36 10.9377 26.36 8.94606C26.36 7.05849 25.7253 5.33071 24.573 4.0808C23.4378 2.84948 21.8769 2.17144 20.1782 2.17144C18.9336 2.17144 17.7909 2.56707 16.782 3.34722C15.8828 4.04278 15.2565 4.92205 14.8893 5.53728C14.7004 5.85366 14.368 6.0425 14 6.0425C13.6319 6.0425 13.2995 5.85366 13.1107 5.53728C12.7437 4.92205 12.1173 4.04278 11.218 3.34722C10.209 2.56707 9.06636 2.17144 7.82201 2.17144Z" fill="#0F2438"/>
</svg>
