<svg width="21" height="19" viewBox="0 0 21 19" fill="none" xmlns="http://www.w3.org/2000/svg">
<path d="M19.5117 1.95318C18.5194 0.984256 17.1485 0.5 15.3983 0.5C14.914 0.5 14.4197 0.583979 13.9159 0.751856C13.4119 0.919856 12.943 1.14651 12.5098 1.43165C12.076 1.71671 11.7033 1.98441 11.3905 2.23434C11.0782 2.48435 10.7812 2.75004 10.5 3.0312C10.2187 2.75004 9.92179 2.48435 9.60939 2.23434C9.29679 1.98441 8.92385 1.71688 8.49016 1.43165C8.05655 1.14639 7.58777 0.919897 7.0839 0.751856C6.58006 0.58402 6.08583 0.5 5.60149 0.5C3.85143 0.5 2.48043 0.984379 1.48827 1.95318C0.496118 2.9219 0 4.26557 0 5.98431C0 6.50776 0.0919421 7.04702 0.275457 7.60142C0.458972 8.15611 0.668099 8.62884 0.902429 9.01939C1.13672 9.40989 1.40241 9.79071 1.69929 10.1618C1.99617 10.5329 2.21314 10.7887 2.3497 10.9293C2.48638 11.0699 2.59384 11.1716 2.67195 11.2342L9.98434 18.2889C10.125 18.4295 10.2969 18.5 10.5 18.5C10.7031 18.5 10.875 18.4295 11.0156 18.2889L18.3164 11.2574C20.1055 9.46859 21 7.71077 21 5.98414C21 4.26528 20.5039 2.92173 19.5117 1.95318ZM17.2968 10.156L10.5 16.7067L3.69156 10.1442C2.23058 8.68355 1.50022 7.29666 1.50022 5.98414C1.50022 5.35143 1.5842 4.79275 1.75207 4.3085C1.92007 3.82416 2.13491 3.43928 2.39661 3.15413C2.65836 2.86891 2.97667 2.63667 3.35166 2.45685C3.72686 2.27719 4.09401 2.15607 4.45333 2.0936C4.81264 2.03121 5.19539 1.99997 5.6017 1.99997C6.00789 1.99997 6.44547 2.09947 6.91421 2.29874C7.38287 2.49794 7.81451 2.74794 8.209 3.04869C8.60357 3.34963 8.94146 3.63084 9.22283 3.89246C9.50403 4.15433 9.73832 4.39441 9.92585 4.61318C10.0664 4.78512 10.258 4.87107 10.5 4.87107C10.7422 4.87107 10.9336 4.78512 11.0743 4.61318C11.2618 4.39441 11.4962 4.15421 11.7774 3.89246C12.0587 3.63084 12.3966 3.34976 12.791 3.04869C13.1856 2.74794 13.6172 2.49794 14.0861 2.29874C14.5547 2.09951 14.9924 1.99997 15.3986 1.99997C15.8049 1.99997 16.1875 2.03121 16.547 2.0936C16.9064 2.15603 17.2736 2.27719 17.6486 2.45685C18.0237 2.63663 18.342 2.86903 18.6036 3.15413C18.8653 3.43928 19.0803 3.82416 19.2483 4.3085C19.416 4.79275 19.4999 5.35143 19.4999 5.98414C19.4999 7.29666 18.7656 8.68741 17.2968 10.156Z" fill="#005BB9"/>
</svg>
