<svg width="21" height="17" viewBox="0 0 21 17" fill="none" xmlns="http://www.w3.org/2000/svg">
<path d="M20.5625 16.375H0.4375C0.196 16.375 0 16.179 0 15.9375C0 15.696 0.196 15.5 0.4375 15.5H20.5625C20.804 15.5 21 15.696 21 15.9375C21 16.179 20.804 16.375 20.5625 16.375Z" fill="#005BB9" stroke="#005BB9" stroke-width="0.4"/>
<path d="M5.68749 16.375H1.31249C1.07099 16.375 0.874992 16.179 0.874992 15.9375V5C0.874992 4.51788 1.26787 4.125 1.74999 4.125H5.24999C5.73212 4.125 6.12499 4.51788 6.12499 5V15.9375C6.12499 16.179 5.92899 16.375 5.68749 16.375ZM1.74999 15.5H5.24999V5H1.74999V15.5Z" fill="#005BB9" stroke="#005BB9" stroke-width="0.4"/>
<path d="M12.6875 16.375H8.3125C8.071 16.375 7.875 16.179 7.875 15.9375V1.5C7.875 1.01788 8.26788 0.625 8.75 0.625H12.25C12.7321 0.625 13.125 1.01788 13.125 1.5V15.9375C13.125 16.179 12.929 16.375 12.6875 16.375ZM8.75 15.5H12.25V1.5H8.75V15.5Z" fill="#005BB9" stroke="#005BB9" stroke-width="0.4"/>
<path d="M19.6875 16.375H15.3125C15.071 16.375 14.875 16.179 14.875 15.9375V7.625C14.875 7.14287 15.2679 6.75 15.75 6.75H19.25C19.7321 6.75 20.125 7.14287 20.125 7.625V15.9375C20.125 16.179 19.929 16.375 19.6875 16.375ZM15.75 15.5H19.25V7.625H15.75V15.5Z" fill="#005BB9" stroke="#005BB9" stroke-width="0.4"/>
</svg>
