<svg width="32" height="32" viewBox="0 0 32 32" fill="none" xmlns="http://www.w3.org/2000/svg">
<path d="M16 0C7.16343 0 0 7.16343 0 16C0 24.8365 7.16343 31.9999 16 31.9999C24.8365 31.9999 31.9999 24.8365 31.9999 16C31.9906 7.16738 24.8326 0.00944196 16 0ZM16 29.7142C8.42578 29.7142 2.28569 23.5742 2.28569 16C2.28569 8.42578 8.42578 2.28569 16 2.28569C23.5742 2.28569 29.7142 8.42578 29.7142 16C29.7061 23.5708 23.5708 29.7061 16 29.7142Z" fill="#0F2438"/>
<path d="M16 5.71436C15.3688 5.71436 14.8571 6.22603 14.8571 6.85723V14.8573H6.85714C6.22594 14.8573 5.71426 15.3689 5.71426 16.0001C5.71426 16.6313 6.22594 17.1429 6.85714 17.1429H16C16.6312 17.1429 17.1428 16.6313 17.1428 16.0001V6.85723C17.1428 6.22603 16.6312 5.71436 16 5.71436Z" fill="#0F2438"/>
</svg>
