<svg width="12" height="12" viewBox="0 0 12 12" fill="none" xmlns="http://www.w3.org/2000/svg">
<path d="M6.0015 0H5.9985C2.69025 0 0 2.691 0 6C0 7.3125 0.423 8.529 1.14225 9.51675L0.3945 11.7458L2.70075 11.0085C3.6495 11.637 4.78125 12 6.0015 12C9.30975 12 12 9.30825 12 6C12 2.69175 9.30975 0 6.0015 0Z" fill="#4CAF50"/>
<path d="M9.49276 8.47264C9.34801 8.88139 8.77351 9.22039 8.31526 9.31939C8.00176 9.38614 7.59226 9.43939 6.21376 8.86789C4.45051 8.13739 3.31501 6.34564 3.22651 6.22939C3.14176 6.11314 2.51401 5.28064 2.51401 4.41964C2.51401 3.55864 2.95126 3.13939 3.12751 2.95939C3.27226 2.81164 3.51151 2.74414 3.74101 2.74414C3.81526 2.74414 3.88201 2.74789 3.94201 2.75089C4.11826 2.75839 4.20676 2.76889 4.32301 3.04714C4.46776 3.39589 4.82026 4.25689 4.86226 4.34539C4.90501 4.43389 4.94776 4.55389 4.88776 4.67014C4.83151 4.79014 4.78201 4.84339 4.69351 4.94539C4.60501 5.04739 4.52101 5.12539 4.43251 5.23489C4.35151 5.33014 4.26001 5.43214 4.36201 5.60839C4.46401 5.78089 4.81651 6.35614 5.33551 6.81814C6.00526 7.41439 6.54826 7.60489 6.74251 7.68589C6.88726 7.74589 7.05976 7.73164 7.16551 7.61914C7.29976 7.47439 7.46551 7.23439 7.63426 6.99814C7.75426 6.82864 7.90576 6.80764 8.06476 6.86764C8.22676 6.92389 9.08401 7.34764 9.26026 7.43539C9.43651 7.52389 9.55276 7.56589 9.59551 7.64014C9.63751 7.71439 9.63751 8.06314 9.49276 8.47264Z" fill="#FAFAFA"/>
</svg>
